<svg xmlns="http://www.w3.org/2000/svg" width="900" height="500"><rect x="0" y="0" width="900" height="500" fill="#ffffff"/><line x1="50" y1="450" x2="850" y2="450" stroke="#333"/><line x1="50" y1="50" x2="50" y2="450" stroke="#333"/><line x1="33.58" y1="50" x2="33.58" y2="450" stroke="#e6e6e6"/><text x="33.58" y="468" font-size="10" fill="#555555" text-anchor="middle">0m</text><line x1="88.83" y1="50" x2="88.83" y2="450" stroke="#e6e6e6"/><line x1="144.08" y1="50" x2="144.08" y2="450" stroke="#e6e6e6"/><text x="144.08" y="468" font-size="10" fill="#555555" text-anchor="middle">1m</text><line x1="199.33" y1="50" x2="199.33" y2="450" stroke="#e6e6e6"/><line x1="254.59" y1="50" x2="254.59" y2="450" stroke="#e6e6e6"/><text x="254.59" y="468" font-size="10" fill="#555555" text-anchor="middle">3m</text><line x1="309.84" y1="50" x2="309.84" y2="450" stroke="#e6e6e6"/><line x1="365.09" y1="50" x2="365.09" y2="450" stroke="#e6e6e6"/><text x="365.09" y="468" font-size="10" fill="#555555" text-anchor="middle">5m</text><line x1="420.34" y1="50" x2="420.34" y2="450" stroke="#e6e6e6"/><line x1="475.59" y1="50" x2="475.59" y2="450" stroke="#e6e6e6"/><text x="475.59" y="468" font-size="10" fill="#555555" text-anchor="middle">7m</text><line x1="530.85" y1="50" x2="530.85" y2="450" stroke="#e6e6e6"/><line x1="586.10" y1="50" x2="586.10" y2="450" stroke="#e6e6e6"/><text x="586.10" y="468" font-size="10" fill="#555555" text-anchor="middle">9m</text><line x1="641.35" y1="50" x2="641.35" y2="450" stroke="#e6e6e6"/><line x1="696.60" y1="50" x2="696.60" y2="450" stroke="#e6e6e6"/><text x="696.60" y="468" font-size="10" fill="#555555" text-anchor="middle">11m</text><line x1="751.85" y1="50" x2="751.85" y2="450" stroke="#e6e6e6"/><line x1="807.11" y1="50" x2="807.11" y2="450" stroke="#e6e6e6"/><text x="807.11" y="468" font-size="10" fill="#555555" text-anchor="middle">13m</text><line x1="862.36" y1="50" x2="862.36" y2="450" stroke="#e6e6e6"/><line x1="50" y1="450.00" x2="850" y2="450.00" stroke="#e6e6e6"/><text x="42" y="453.00" font-size="10" fill="#555555" text-anchor="end">0m</text><line x1="50" y1="409.18" x2="850" y2="409.18" stroke="#e6e6e6"/><line x1="50" y1="368.37" x2="850" y2="368.37" stroke="#e6e6e6"/><text x="42" y="371.37" font-size="10" fill="#555555" text-anchor="end">2m</text><line x1="50" y1="327.55" x2="850" y2="327.55" stroke="#e6e6e6"/><line x1="50" y1="286.73" x2="850" y2="286.73" stroke="#e6e6e6"/><text x="42" y="289.73" font-size="10" fill="#555555" text-anchor="end">4m</text><line x1="50" y1="245.92" x2="850" y2="245.92" stroke="#e6e6e6"/><line x1="50" y1="205.10" x2="850" y2="205.10" stroke="#e6e6e6"/><text x="42" y="208.10" font-size="10" fill="#555555" text-anchor="end">6m</text><line x1="50" y1="164.29" x2="850" y2="164.29" stroke="#e6e6e6"/><line x1="50" y1="123.47" x2="850" y2="123.47" stroke="#e6e6e6"/><text x="42" y="126.47" font-size="10" fill="#555555" text-anchor="end">8m</text><line x1="50" y1="82.65" x2="850" y2="82.65" stroke="#e6e6e6"/><line x1="50" y1="41.84" x2="850" y2="41.84" stroke="#e6e6e6"/><text x="42" y="44.84" font-size="10" fill="#555555" text-anchor="end">10m</text><line x1="33.58" y1="450.00" x2="850.00" y2="-153.12" stroke="#555" stroke-dasharray="4,4"/><circle cx="50.00" cy="450.00" r="3" fill="#2ecc71"/><circle cx="62.85" cy="441.84" r="3" fill="#2ecc71"/><circle cx="67.13" cy="425.51" r="3" fill="#2ecc71"/><circle cx="73.21" cy="433.67" r="3" fill="#2ecc71"/><circle cx="95.90" cy="409.18" r="3" fill="#2ecc71"/><circle cx="121.52" cy="401.02" r="3" fill="#2ecc71"/><circle cx="133.96" cy="384.69" r="3" fill="#2ecc71"/><circle cx="136.17" cy="392.86" r="3" fill="#2ecc71"/><circle cx="137.58" cy="376.53" r="3" fill="#2ecc71"/><circle cx="148.66" cy="368.37" r="3" fill="#2ecc71"/><circle cx="166.64" cy="352.04" r="3" fill="#2ecc71"/><circle cx="179.17" cy="343.88" r="3" fill="#2ecc71"/><circle cx="206.12" cy="335.71" r="3" fill="#2ecc71"/><circle cx="222.87" cy="327.55" r="3" fill="#2ecc71"/><circle cx="236.50" cy="319.39" r="3" fill="#2ecc71"/><circle cx="239.38" cy="311.22" r="3" fill="#2ecc71"/><circle cx="269.68" cy="278.57" r="3" fill="#2ecc71"/><circle cx="278.75" cy="286.73" r="3" fill="#2ecc71"/><circle cx="302.67" cy="262.24" r="3" fill="#2ecc71"/><circle cx="319.07" cy="254.08" r="3" fill="#2ecc71"/><circle cx="328.75" cy="245.92" r="3" fill="#2ecc71"/><circle cx="343.58" cy="229.59" r="3" fill="#2ecc71"/><circle cx="359.11" cy="221.43" r="3" fill="#2ecc71"/><circle cx="364.31" cy="360.20" r="3" fill="#f39c12"/><circle cx="371.67" cy="213.27" r="3" fill="#2ecc71"/><circle cx="375.25" cy="205.10" r="3" fill="#2ecc71"/><circle cx="377.01" cy="196.94" r="3" fill="#2ecc71"/><circle cx="383.09" cy="270.41" r="3" fill="#f39c12"/><circle cx="408.09" cy="180.61" r="3" fill="#2ecc71"/><circle cx="408.93" cy="303.06" r="3" fill="#f39c12"/><circle cx="423.48" cy="164.29" r="3" fill="#2ecc71"/><circle cx="429.48" cy="294.90" r="3" fill="#f39c12"/><circle cx="457.25" cy="139.80" r="3" fill="#2ecc71"/><circle cx="459.75" cy="147.96" r="3" fill="#2ecc71"/><circle cx="465.93" cy="417.35" r="3" fill="#e74c3c"/><circle cx="490.18" cy="123.47" r="3" fill="#2ecc71"/><circle cx="490.31" cy="131.63" r="3" fill="#2ecc71"/><circle cx="505.43" cy="237.76" r="3" fill="#f39c12"/><circle cx="509.44" cy="188.78" r="3" fill="#f39c12"/><circle cx="510.80" cy="115.31" r="3" fill="#2ecc71"/><circle cx="517.61" cy="98.98" r="3" fill="#2ecc71"/><circle cx="524.76" cy="107.14" r="3" fill="#2ecc71"/><circle cx="532.32" cy="90.82" r="3" fill="#2ecc71"/><circle cx="564.88" cy="74.49" r="3" fill="#2ecc71"/><circle cx="565.24" cy="156.12" r="3" fill="#f39c12"/><circle cx="574.63" cy="66.33" r="3" fill="#2ecc71"/><circle cx="580.62" cy="58.16" r="3" fill="#2ecc71"/><circle cx="624.39" cy="82.65" r="3" fill="#f39c12"/><circle cx="725.29" cy="50.00" r="3" fill="#f39c12"/><circle cx="850.00" cy="172.45" r="3" fill="#f39c12"/><text x="450.00" y="492" font-size="12" fill="#555555" text-anchor="middle">processing_time (min)</text><text x="12" y="250.00" font-size="12" fill="#555555" text-anchor="middle" transform="rotate(-90 12 250.00)">event_time (min)</text></svg>